M48
; DRILL file {KiCad (6.0.8-1)-1} date Saturday, December 31, 2022 at 11:42:24 PM
; FORMAT={-:-/ absolute / inch / decimal}
; #@! TF.CreationDate,2022-12-31T23:42:24-07:00
; #@! TF.GenerationSoftware,Kicad,Pcbnew,(6.0.8-1)-1
; #@! TF.FileFunction,Plated,1,2,PTH
FMAT,2
INCH
; #@! TA.AperFunction,Plated,PTH,ComponentDrill
T1C0.0315
; #@! TA.AperFunction,Plated,PTH,ComponentDrill
T2C0.0394
%
G90
G05
T1
X5.7889Y-2.9518
X5.7889Y-3.0482
X5.8307Y-2.865
X5.8307Y-3.135
X5.906Y-2.8049
X5.906Y-3.1951
X6.0Y-3.2165
X6.094Y-2.8049
X6.094Y-3.1951
X6.1693Y-2.865
X6.1693Y-3.135
X6.2111Y-2.9518
X6.2111Y-3.0482
T2
X5.7486Y-2.4994
X5.7504Y-3.4993
X5.8486Y-2.4994
X5.8504Y-3.4993
X5.9486Y-2.4994
X5.9504Y-3.4993
X6.0486Y-2.4994
X6.0504Y-3.4993
X6.1486Y-2.4994
X6.1504Y-3.4993
X6.2486Y-2.4994
X6.2504Y-3.4993
T0
M30
