%TF.GenerationSoftware,KiCad,Pcbnew,(6.0.8-1)-1*%
%TF.CreationDate,2022-12-31T23:42:21-07:00*%
%TF.ProjectId,Z573M-tube,5a353733-4d2d-4747-9562-652e6b696361,rev?*%
%TF.SameCoordinates,Original*%
%TF.FileFunction,Legend,Top*%
%TF.FilePolarity,Positive*%
%FSLAX46Y46*%
G04 Gerber Fmt 4.6, Leading zero omitted, Abs format (unit mm)*
G04 Created by KiCad (PCBNEW (6.0.8-1)-1) date 2022-12-31 23:42:21*
%MOMM*%
%LPD*%
G01*
G04 APERTURE LIST*
%ADD10C,0.203200*%
%ADD11C,0.150000*%
%ADD12C,0.152400*%
%ADD13C,0.120000*%
G04 APERTURE END LIST*
D10*
X158000669Y-66499619D02*
X158127669Y-65483619D01*
X158145812Y-66112571D02*
X158387717Y-66499619D01*
X158472384Y-65822285D02*
X158036955Y-66209333D01*
X158871526Y-66499619D02*
X159065050Y-66499619D01*
X159167860Y-66451238D01*
X159222288Y-66402857D01*
X159337193Y-66257714D01*
X159409765Y-66064190D01*
X159458145Y-65677142D01*
X159421860Y-65580380D01*
X159379526Y-65532000D01*
X159288812Y-65483619D01*
X159095288Y-65483619D01*
X158992479Y-65532000D01*
X158938050Y-65580380D01*
X158877574Y-65677142D01*
X158847336Y-65919047D01*
X158883622Y-66015809D01*
X158925955Y-66064190D01*
X159016669Y-66112571D01*
X159210193Y-66112571D01*
X159313003Y-66064190D01*
X159367431Y-66015809D01*
X159427907Y-65919047D01*
X155460669Y-66499619D02*
X155587669Y-65483619D01*
X155605812Y-66112571D02*
X155847717Y-66499619D01*
X155932384Y-65822285D02*
X155496955Y-66209333D01*
X156603669Y-65483619D02*
X156700431Y-65483619D01*
X156791145Y-65532000D01*
X156833479Y-65580380D01*
X156869765Y-65677142D01*
X156893955Y-65870666D01*
X156863717Y-66112571D01*
X156791145Y-66306095D01*
X156730669Y-66402857D01*
X156676241Y-66451238D01*
X156573431Y-66499619D01*
X156476669Y-66499619D01*
X156385955Y-66451238D01*
X156343622Y-66402857D01*
X156307336Y-66306095D01*
X156283145Y-66112571D01*
X156313384Y-65870666D01*
X156385955Y-65677142D01*
X156446431Y-65580380D01*
X156500860Y-65532000D01*
X156603669Y-65483619D01*
X153368193Y-66209333D02*
X153852003Y-66209333D01*
X153235145Y-66499619D02*
X153700812Y-65483619D01*
X153912479Y-66499619D01*
X150380669Y-66499619D02*
X150507669Y-65483619D01*
X150525812Y-66112571D02*
X150767717Y-66499619D01*
X150852384Y-65822285D02*
X150416955Y-66209333D01*
X151735336Y-66499619D02*
X151154765Y-66499619D01*
X151445050Y-66499619D02*
X151572050Y-65483619D01*
X151457145Y-65628761D01*
X151348288Y-65725523D01*
X151245479Y-65773904D01*
X147840669Y-66499619D02*
X147967669Y-65483619D01*
X147985812Y-66112571D02*
X148227717Y-66499619D01*
X148312384Y-65822285D02*
X147876955Y-66209333D01*
X148729669Y-65580380D02*
X148784098Y-65532000D01*
X148886907Y-65483619D01*
X149128812Y-65483619D01*
X149219526Y-65532000D01*
X149261860Y-65580380D01*
X149298145Y-65677142D01*
X149286050Y-65773904D01*
X149219526Y-65919047D01*
X148566384Y-66499619D01*
X149195336Y-66499619D01*
X145300669Y-66499619D02*
X145427669Y-65483619D01*
X145445812Y-66112571D02*
X145687717Y-66499619D01*
X145772384Y-65822285D02*
X145336955Y-66209333D01*
X146153384Y-65483619D02*
X146782336Y-65483619D01*
X146395288Y-65870666D01*
X146540431Y-65870666D01*
X146631145Y-65919047D01*
X146673479Y-65967428D01*
X146709765Y-66064190D01*
X146679526Y-66306095D01*
X146619050Y-66402857D01*
X146564622Y-66451238D01*
X146461812Y-66499619D01*
X146171526Y-66499619D01*
X146080812Y-66451238D01*
X146038479Y-66402857D01*
X158411907Y-86819619D02*
X158538907Y-85803619D01*
X158417955Y-86771238D02*
X158315145Y-86819619D01*
X158121622Y-86819619D01*
X158030907Y-86771238D01*
X157988574Y-86722857D01*
X157952288Y-86626095D01*
X157988574Y-86335809D01*
X158049050Y-86239047D01*
X158103479Y-86190666D01*
X158206288Y-86142285D01*
X158399812Y-86142285D01*
X158490526Y-86190666D01*
X158980384Y-86142285D02*
X158853384Y-87158285D01*
X158974336Y-86190666D02*
X159077145Y-86142285D01*
X159270669Y-86142285D01*
X159361384Y-86190666D01*
X159403717Y-86239047D01*
X159440003Y-86335809D01*
X159403717Y-86626095D01*
X159343241Y-86722857D01*
X159288812Y-86771238D01*
X159186003Y-86819619D01*
X158992479Y-86819619D01*
X158901765Y-86771238D01*
X155460669Y-86819619D02*
X155587669Y-85803619D01*
X155605812Y-86432571D02*
X155847717Y-86819619D01*
X155932384Y-86142285D02*
X155496955Y-86529333D01*
X156500860Y-86239047D02*
X156410145Y-86190666D01*
X156367812Y-86142285D01*
X156331526Y-86045523D01*
X156337574Y-85997142D01*
X156398050Y-85900380D01*
X156452479Y-85852000D01*
X156555288Y-85803619D01*
X156748812Y-85803619D01*
X156839526Y-85852000D01*
X156881860Y-85900380D01*
X156918145Y-85997142D01*
X156912098Y-86045523D01*
X156851622Y-86142285D01*
X156797193Y-86190666D01*
X156694384Y-86239047D01*
X156500860Y-86239047D01*
X156398050Y-86287428D01*
X156343622Y-86335809D01*
X156283145Y-86432571D01*
X156258955Y-86626095D01*
X156295241Y-86722857D01*
X156337574Y-86771238D01*
X156428288Y-86819619D01*
X156621812Y-86819619D01*
X156724622Y-86771238D01*
X156779050Y-86722857D01*
X156839526Y-86626095D01*
X156863717Y-86432571D01*
X156827431Y-86335809D01*
X156785098Y-86287428D01*
X156694384Y-86239047D01*
X152920669Y-86819619D02*
X153047669Y-85803619D01*
X153065812Y-86432571D02*
X153307717Y-86819619D01*
X153392384Y-86142285D02*
X152956955Y-86529333D01*
X153773384Y-85803619D02*
X154450717Y-85803619D01*
X153888288Y-86819619D01*
X150380669Y-86819619D02*
X150507669Y-85803619D01*
X150525812Y-86432571D02*
X150767717Y-86819619D01*
X150852384Y-86142285D02*
X150416955Y-86529333D01*
X151765574Y-85803619D02*
X151572050Y-85803619D01*
X151469241Y-85852000D01*
X151414812Y-85900380D01*
X151299907Y-86045523D01*
X151227336Y-86239047D01*
X151178955Y-86626095D01*
X151215241Y-86722857D01*
X151257574Y-86771238D01*
X151348288Y-86819619D01*
X151541812Y-86819619D01*
X151644622Y-86771238D01*
X151699050Y-86722857D01*
X151759526Y-86626095D01*
X151789765Y-86384190D01*
X151753479Y-86287428D01*
X151711145Y-86239047D01*
X151620431Y-86190666D01*
X151426907Y-86190666D01*
X151324098Y-86239047D01*
X151269669Y-86287428D01*
X151209193Y-86384190D01*
X147840669Y-86819619D02*
X147967669Y-85803619D01*
X147985812Y-86432571D02*
X148227717Y-86819619D01*
X148312384Y-86142285D02*
X147876955Y-86529333D01*
X149273955Y-85803619D02*
X148790145Y-85803619D01*
X148681288Y-86287428D01*
X148735717Y-86239047D01*
X148838526Y-86190666D01*
X149080431Y-86190666D01*
X149171145Y-86239047D01*
X149213479Y-86287428D01*
X149249765Y-86384190D01*
X149219526Y-86626095D01*
X149159050Y-86722857D01*
X149104622Y-86771238D01*
X149001812Y-86819619D01*
X148759907Y-86819619D01*
X148669193Y-86771238D01*
X148626860Y-86722857D01*
X145300669Y-86819619D02*
X145427669Y-85803619D01*
X145445812Y-86432571D02*
X145687717Y-86819619D01*
X145772384Y-86142285D02*
X145336955Y-86529333D01*
X146643241Y-86142285D02*
X146558574Y-86819619D01*
X146449717Y-85755238D02*
X146117098Y-86480952D01*
X146746050Y-86480952D01*
D11*
X150709523Y-79160714D02*
X151090476Y-79160714D01*
X150852380Y-79827380D02*
X150852380Y-78970238D01*
X150900000Y-78875000D01*
X150995238Y-78827380D01*
X151090476Y-78827380D01*
X151423809Y-79827380D02*
X151423809Y-79160714D01*
X151423809Y-79351190D02*
X151471428Y-79255952D01*
X151519047Y-79208333D01*
X151614285Y-79160714D01*
X151709523Y-79160714D01*
X152185714Y-79827380D02*
X152090476Y-79779761D01*
X152042857Y-79732142D01*
X151995238Y-79636904D01*
X151995238Y-79351190D01*
X152042857Y-79255952D01*
X152090476Y-79208333D01*
X152185714Y-79160714D01*
X152328571Y-79160714D01*
X152423809Y-79208333D01*
X152471428Y-79255952D01*
X152519047Y-79351190D01*
X152519047Y-79636904D01*
X152471428Y-79732142D01*
X152423809Y-79779761D01*
X152328571Y-79827380D01*
X152185714Y-79827380D01*
X152947619Y-79160714D02*
X152947619Y-79827380D01*
X152947619Y-79255952D02*
X152995238Y-79208333D01*
X153090476Y-79160714D01*
X153233333Y-79160714D01*
X153328571Y-79208333D01*
X153376190Y-79303571D01*
X153376190Y-79827380D01*
X153709523Y-79160714D02*
X154090476Y-79160714D01*
X153852380Y-78827380D02*
X153852380Y-79684523D01*
X153900000Y-79779761D01*
X153995238Y-79827380D01*
X154090476Y-79827380D01*
%TO.C,J2*%
X143176666Y-62952380D02*
X143176666Y-63666666D01*
X143129047Y-63809523D01*
X143033809Y-63904761D01*
X142890952Y-63952380D01*
X142795714Y-63952380D01*
X143605238Y-63047619D02*
X143652857Y-63000000D01*
X143748095Y-62952380D01*
X143986190Y-62952380D01*
X144081428Y-63000000D01*
X144129047Y-63047619D01*
X144176666Y-63142857D01*
X144176666Y-63238095D01*
X144129047Y-63380952D01*
X143557619Y-63952380D01*
X144176666Y-63952380D01*
%TO.C,J1*%
X143176666Y-88352380D02*
X143176666Y-89066666D01*
X143129047Y-89209523D01*
X143033809Y-89304761D01*
X142890952Y-89352380D01*
X142795714Y-89352380D01*
X144176666Y-89352380D02*
X143605238Y-89352380D01*
X143890952Y-89352380D02*
X143890952Y-88352380D01*
X143795714Y-88495238D01*
X143700476Y-88590476D01*
X143605238Y-88638095D01*
D10*
%TO.C,Version 2.0*%
X157365669Y-81104619D02*
X157492669Y-80088619D01*
X157510812Y-80717571D02*
X157752717Y-81104619D01*
X157837384Y-80427285D02*
X157401955Y-80814333D01*
X158405860Y-80524047D02*
X158315145Y-80475666D01*
X158272812Y-80427285D01*
X158236526Y-80330523D01*
X158242574Y-80282142D01*
X158303050Y-80185380D01*
X158357479Y-80137000D01*
X158460288Y-80088619D01*
X158653812Y-80088619D01*
X158744526Y-80137000D01*
X158786860Y-80185380D01*
X158823145Y-80282142D01*
X158817098Y-80330523D01*
X158756622Y-80427285D01*
X158702193Y-80475666D01*
X158599384Y-80524047D01*
X158405860Y-80524047D01*
X158303050Y-80572428D01*
X158248622Y-80620809D01*
X158188145Y-80717571D01*
X158163955Y-80911095D01*
X158200241Y-81007857D01*
X158242574Y-81056238D01*
X158333288Y-81104619D01*
X158526812Y-81104619D01*
X158629622Y-81056238D01*
X158684050Y-81007857D01*
X158744526Y-80911095D01*
X158768717Y-80717571D01*
X158732431Y-80620809D01*
X158690098Y-80572428D01*
X158599384Y-80524047D01*
X145681669Y-71960619D02*
X145808669Y-70944619D01*
X145826812Y-71573571D02*
X146068717Y-71960619D01*
X146153384Y-71283285D02*
X145717955Y-71670333D01*
X146570669Y-71041380D02*
X146625098Y-70993000D01*
X146727907Y-70944619D01*
X146969812Y-70944619D01*
X147060526Y-70993000D01*
X147102860Y-71041380D01*
X147139145Y-71138142D01*
X147127050Y-71234904D01*
X147060526Y-71380047D01*
X146407384Y-71960619D01*
X147036336Y-71960619D01*
X144629384Y-78310619D02*
X144714050Y-77633285D01*
X144756384Y-77294619D02*
X144701955Y-77343000D01*
X144744288Y-77391380D01*
X144798717Y-77343000D01*
X144756384Y-77294619D01*
X144744288Y-77391380D01*
X145554669Y-78262238D02*
X145451860Y-78310619D01*
X145258336Y-78310619D01*
X145167622Y-78262238D01*
X145125288Y-78213857D01*
X145089003Y-78117095D01*
X145125288Y-77826809D01*
X145185765Y-77730047D01*
X145240193Y-77681666D01*
X145343003Y-77633285D01*
X145536526Y-77633285D01*
X145627241Y-77681666D01*
X144411669Y-75008619D02*
X144538669Y-73992619D01*
X144556812Y-74621571D02*
X144798717Y-75008619D01*
X144883384Y-74331285D02*
X144447955Y-74718333D01*
X145264384Y-73992619D02*
X145893336Y-73992619D01*
X145506288Y-74379666D01*
X145651431Y-74379666D01*
X145742145Y-74428047D01*
X145784479Y-74476428D01*
X145820765Y-74573190D01*
X145790526Y-74815095D01*
X145730050Y-74911857D01*
X145675622Y-74960238D01*
X145572812Y-75008619D01*
X145282526Y-75008619D01*
X145191812Y-74960238D01*
X145149479Y-74911857D01*
X145681669Y-81104619D02*
X145808669Y-80088619D01*
X145826812Y-80717571D02*
X146068717Y-81104619D01*
X146153384Y-80427285D02*
X145717955Y-80814333D01*
X147024241Y-80427285D02*
X146939574Y-81104619D01*
X146830717Y-80040238D02*
X146498098Y-80765952D01*
X147127050Y-80765952D01*
X157365669Y-71960619D02*
X157492669Y-70944619D01*
X157510812Y-71573571D02*
X157752717Y-71960619D01*
X157837384Y-71283285D02*
X157401955Y-71670333D01*
X158508669Y-70944619D02*
X158605431Y-70944619D01*
X158696145Y-70993000D01*
X158738479Y-71041380D01*
X158774765Y-71138142D01*
X158798955Y-71331666D01*
X158768717Y-71573571D01*
X158696145Y-71767095D01*
X158635669Y-71863857D01*
X158581241Y-71912238D01*
X158478431Y-71960619D01*
X158381669Y-71960619D01*
X158290955Y-71912238D01*
X158248622Y-71863857D01*
X158212336Y-71767095D01*
X158188145Y-71573571D01*
X158218384Y-71331666D01*
X158290955Y-71138142D01*
X158351431Y-71041380D01*
X158405860Y-70993000D01*
X158508669Y-70944619D01*
X148221669Y-69928619D02*
X148348669Y-68912619D01*
X148366812Y-69541571D02*
X148608717Y-69928619D01*
X148693384Y-69251285D02*
X148257955Y-69638333D01*
X149576336Y-69928619D02*
X148995765Y-69928619D01*
X149286050Y-69928619D02*
X149413050Y-68912619D01*
X149298145Y-69057761D01*
X149189288Y-69154523D01*
X149086479Y-69202904D01*
X158889669Y-75008619D02*
X159016669Y-73992619D01*
X159034812Y-74621571D02*
X159276717Y-75008619D01*
X159361384Y-74331285D02*
X158925955Y-74718333D01*
X159760526Y-75008619D02*
X159954050Y-75008619D01*
X160056860Y-74960238D01*
X160111288Y-74911857D01*
X160226193Y-74766714D01*
X160298765Y-74573190D01*
X160347145Y-74186142D01*
X160310860Y-74089380D01*
X160268526Y-74041000D01*
X160177812Y-73992619D01*
X159984288Y-73992619D01*
X159881479Y-74041000D01*
X159827050Y-74089380D01*
X159766574Y-74186142D01*
X159736336Y-74428047D01*
X159772622Y-74524809D01*
X159814955Y-74573190D01*
X159905669Y-74621571D01*
X160099193Y-74621571D01*
X160202003Y-74573190D01*
X160256431Y-74524809D01*
X160316907Y-74428047D01*
X159300907Y-78310619D02*
X159427907Y-77294619D01*
X159306955Y-78262238D02*
X159204145Y-78310619D01*
X159010622Y-78310619D01*
X158919907Y-78262238D01*
X158877574Y-78213857D01*
X158841288Y-78117095D01*
X158877574Y-77826809D01*
X158938050Y-77730047D01*
X158992479Y-77681666D01*
X159095288Y-77633285D01*
X159288812Y-77633285D01*
X159379526Y-77681666D01*
X159869384Y-77633285D02*
X159742384Y-78649285D01*
X159863336Y-77681666D02*
X159966145Y-77633285D01*
X160159669Y-77633285D01*
X160250384Y-77681666D01*
X160292717Y-77730047D01*
X160329003Y-77826809D01*
X160292717Y-78117095D01*
X160232241Y-78213857D01*
X160177812Y-78262238D01*
X160075003Y-78310619D01*
X159881479Y-78310619D01*
X159790765Y-78262238D01*
X155273193Y-69638333D02*
X155757003Y-69638333D01*
X155140145Y-69928619D02*
X155605812Y-68912619D01*
X155817479Y-69928619D01*
X151523669Y-83898619D02*
X151650669Y-82882619D01*
X151668812Y-83511571D02*
X151910717Y-83898619D01*
X151995384Y-83221285D02*
X151559955Y-83608333D01*
X152908574Y-82882619D02*
X152715050Y-82882619D01*
X152612241Y-82931000D01*
X152557812Y-82979380D01*
X152442907Y-83124523D01*
X152370336Y-83318047D01*
X152321955Y-83705095D01*
X152358241Y-83801857D01*
X152400574Y-83850238D01*
X152491288Y-83898619D01*
X152684812Y-83898619D01*
X152787622Y-83850238D01*
X152842050Y-83801857D01*
X152902526Y-83705095D01*
X152932765Y-83463190D01*
X152896479Y-83366428D01*
X152854145Y-83318047D01*
X152763431Y-83269666D01*
X152569907Y-83269666D01*
X152467098Y-83318047D01*
X152412669Y-83366428D01*
X152352193Y-83463190D01*
X148221669Y-83136619D02*
X148348669Y-82120619D01*
X148366812Y-82749571D02*
X148608717Y-83136619D01*
X148693384Y-82459285D02*
X148257955Y-82846333D01*
X149654955Y-82120619D02*
X149171145Y-82120619D01*
X149062288Y-82604428D01*
X149116717Y-82556047D01*
X149219526Y-82507666D01*
X149461431Y-82507666D01*
X149552145Y-82556047D01*
X149594479Y-82604428D01*
X149630765Y-82701190D01*
X149600526Y-82943095D01*
X149540050Y-83039857D01*
X149485622Y-83088238D01*
X149382812Y-83136619D01*
X149140907Y-83136619D01*
X149050193Y-83088238D01*
X149007860Y-83039857D01*
X154825669Y-83136619D02*
X154952669Y-82120619D01*
X154970812Y-82749571D02*
X155212717Y-83136619D01*
X155297384Y-82459285D02*
X154861955Y-82846333D01*
X155678384Y-82120619D02*
X156355717Y-82120619D01*
X155793288Y-83136619D01*
D12*
X150622000Y-73242714D02*
X151130000Y-73242714D01*
X150622000Y-74004714D01*
X151130000Y-74004714D01*
X151783142Y-73242714D02*
X151420285Y-73242714D01*
X151384000Y-73605571D01*
X151420285Y-73569285D01*
X151492857Y-73533000D01*
X151674285Y-73533000D01*
X151746857Y-73569285D01*
X151783142Y-73605571D01*
X151819428Y-73678142D01*
X151819428Y-73859571D01*
X151783142Y-73932142D01*
X151746857Y-73968428D01*
X151674285Y-74004714D01*
X151492857Y-74004714D01*
X151420285Y-73968428D01*
X151384000Y-73932142D01*
X152073428Y-73242714D02*
X152581428Y-73242714D01*
X152254857Y-74004714D01*
X152799142Y-73242714D02*
X153270857Y-73242714D01*
X153016857Y-73533000D01*
X153125714Y-73533000D01*
X153198285Y-73569285D01*
X153234571Y-73605571D01*
X153270857Y-73678142D01*
X153270857Y-73859571D01*
X153234571Y-73932142D01*
X153198285Y-73968428D01*
X153125714Y-74004714D01*
X152908000Y-74004714D01*
X152835428Y-73968428D01*
X152799142Y-73932142D01*
X153597428Y-74004714D02*
X153597428Y-73242714D01*
X153851428Y-73787000D01*
X154105428Y-73242714D01*
X154105428Y-74004714D01*
D13*
%TO.C,J2*%
X160045162Y-64814132D02*
X160045162Y-62154132D01*
X147285162Y-64814132D02*
X160045162Y-64814132D01*
X147285162Y-64814132D02*
X147285162Y-62154132D01*
X147285162Y-62154132D02*
X160045162Y-62154132D01*
X146015162Y-64814132D02*
X144685162Y-64814132D01*
X144685162Y-64814132D02*
X144685162Y-63484132D01*
%TO.C,J1*%
X147329485Y-90211027D02*
X160089485Y-90211027D01*
X144729485Y-90211027D02*
X144729485Y-88881027D01*
X160089485Y-90211027D02*
X160089485Y-87551027D01*
X147329485Y-90211027D02*
X147329485Y-87551027D01*
X147329485Y-87551027D02*
X160089485Y-87551027D01*
X146059485Y-90211027D02*
X144729485Y-90211027D01*
%TO.C,Version 2.0*%
X161520000Y-76200000D02*
G75*
G03*
X161520000Y-76200000I-9120000J0D01*
G01*
%TD*%
M02*
